<svg width="500" height="500" viewBox="0 0 500 500" fill="none" xmlns="http://www.w3.org/2000/svg">
<rect width="500" height="500" fill="#ECF7FF"/>
<rect x="255.32" y="324.926" width="83.0717" height="31.3023" fill="#054279"/>
<rect x="271.975" y="324.854" width="83.0717" height="31.3023" fill="#054279"/>
<rect x="255.176" y="266.14" width="67.4204" height="33.4366" fill="#44A3FA"/>
<rect x="255.176" y="186.401" width="67.4204" height="33.4366" fill="#44A3FA"/>
<rect x="255.176" y="226.248" width="67.4204" height="33.4366" fill="#44A3FA"/>
<rect x="255.32" y="133.448" width="83.0717" height="31.3023" fill="#054279"/>
<rect x="270.947" y="133.44" width="83.0717" height="31.3023" fill="#054279"/>
<path fill-rule="evenodd" clip-rule="evenodd" d="M464.661 244.775C464.661 306.28 415.071 356.139 353.899 356.139C353.895 356.139 353.892 356.139 353.888 356.139V324.663C353.889 324.663 353.89 324.663 353.89 324.663C397.775 324.663 433.35 288.895 433.35 244.772C433.35 200.649 397.775 164.88 353.89 164.88C353.89 164.88 353.889 164.88 353.888 164.88V133.414H353.158C353.405 133.412 353.652 133.411 353.899 133.411C415.071 133.411 464.661 183.271 464.661 244.775Z" fill="#054279"/>
<rect x="55.2246" y="133.441" width="163.735" height="31.3023" fill="#054279"/>
<rect x="121.58" y="345.323" width="191.426" height="31.3023" transform="rotate(-90 121.58 345.323)" fill="#054279"/>
<circle cx="218.952" cy="149.079" r="24.0787" fill="#44A3FA"/>
<circle cx="55.3287" cy="149.079" r="24.0787" fill="#44A3FA"/>
<circle cx="137.311" cy="151.509" r="24.0787" fill="#44A3FA"/>
<circle cx="137.311" cy="340.495" r="24.0787" fill="#44A3FA"/>
<circle cx="267.676" cy="202.673" r="5.41772" fill="#054279"/>
<circle cx="267.676" cy="242.453" r="5.41772" fill="#054279"/>
<circle cx="267.676" cy="282.054" r="5.41772" fill="#054279"/>
</svg>
