<svg width="501" height="500" viewBox="0 0 501 500" fill="none" xmlns="http://www.w3.org/2000/svg">
<rect x="16.125" y="15.625" width="468.75" height="468.75" rx="234.375" fill="#ECF7FF"/>
<rect x="256.801" y="329.186" width="71.8756" height="27.0835" fill="#054279"/>
<rect x="271.445" y="329.126" width="71.8756" height="27.0835" fill="#054279"/>
<rect x="256.652" y="278.358" width="58.3337" height="28.9301" fill="#44A3FA"/>
<rect x="256.652" y="209.35" width="58.3337" height="28.9301" fill="#44A3FA"/>
<rect x="256.652" y="243.836" width="58.3337" height="28.9301" fill="#44A3FA"/>
<rect x="256.801" y="163.561" width="71.8756" height="27.0835" fill="#054279"/>
<rect x="270.424" y="163.56" width="71.8756" height="27.0835" fill="#054279"/>
<path fill-rule="evenodd" clip-rule="evenodd" d="M438.04 259.867C438.04 313.083 395.134 356.222 342.206 356.222C342.185 356.222 342.163 356.222 342.141 356.222V329.04C380.082 329.006 410.829 298.071 410.829 259.916C410.829 221.761 380.082 190.826 342.141 190.792V163.551H339.463C340.374 163.526 341.289 163.513 342.206 163.513C395.134 163.513 438.04 206.652 438.04 259.867Z" fill="#054279"/>
<rect x="83.9473" y="163.56" width="141.668" height="27.0835" fill="#054279"/>
<rect x="141.125" y="346.872" width="165.626" height="27.0835" transform="rotate(-90 141.125 346.872)" fill="#054279"/>
<circle cx="225.482" cy="177.083" r="20.8334" fill="#44A3FA"/>
<circle cx="83.8335" cy="177.083" r="20.8334" fill="#44A3FA"/>
<circle cx="154.636" cy="179.167" r="20.8334" fill="#44A3FA"/>
<circle cx="154.636" cy="342.708" r="20.8334" fill="#44A3FA"/>
<circle cx="267.832" cy="223.438" r="4.68753" fill="#054279"/>
<circle cx="267.832" cy="257.837" r="4.68753" fill="#054279"/>
<circle cx="267.832" cy="292.259" r="4.68753" fill="#054279"/>
<rect x="16.125" y="15.625" width="468.75" height="468.75" rx="234.375" stroke="#44A3FA" stroke-width="31.25"/>
</svg>
