<svg width="501" height="500" viewBox="0 0 501 500" fill="none" xmlns="http://www.w3.org/2000/svg">
<rect x="255.57" y="324.926" width="83.0717" height="31.3023" fill="#054279"/>
<rect x="272.225" y="324.854" width="83.0717" height="31.3023" fill="#054279"/>
<rect x="255.428" y="266.146" width="67.4204" height="33.4366" fill="#44A3FA"/>
<rect x="255.428" y="186.401" width="67.4204" height="33.4366" fill="#44A3FA"/>
<rect x="255.428" y="226.259" width="67.4204" height="33.4366" fill="#44A3FA"/>
<rect x="255.57" y="133.448" width="83.0717" height="31.3023" fill="#054279"/>
<rect x="271.197" y="133.441" width="83.0717" height="31.3023" fill="#054279"/>
<path fill-rule="evenodd" clip-rule="evenodd" d="M464.915 244.776C464.915 306.281 415.325 356.14 354.153 356.14C354.15 356.14 354.148 356.14 354.145 356.14V324.662C398.016 324.646 433.575 288.883 433.575 244.771C433.575 200.658 398.016 164.895 354.145 164.879V133.413H353.518C353.729 133.412 353.941 133.412 354.153 133.412C415.325 133.412 464.915 183.271 464.915 244.776Z" fill="#054279"/>
<rect x="55.4746" y="133.44" width="163.735" height="31.3023" fill="#054279"/>
<rect x="121.83" y="345.323" width="191.426" height="31.3023" transform="rotate(-90 121.83 345.323)" fill="#054279"/>
<circle cx="219.202" cy="149.079" r="24.0787" fill="#44A3FA"/>
<circle cx="55.5787" cy="149.079" r="24.0787" fill="#44A3FA"/>
<circle cx="137.561" cy="151.509" r="24.0787" fill="#44A3FA"/>
<circle cx="137.561" cy="340.495" r="24.0787" fill="#44A3FA"/>
<circle cx="267.926" cy="202.673" r="5.41772" fill="#054279"/>
<circle cx="267.926" cy="242.453" r="5.41772" fill="#054279"/>
<circle cx="267.926" cy="282.054" r="5.41772" fill="#054279"/>
</svg>
